<svg
  xmlns="http://www.w3.org/2000/svg"
  viewBox="0 0 340 340"
  fill="none"
  role="img"
  aria-labelledby="title desc"
>
  <title id="title">Alliance Golf logo</title>
  <desc id="desc">
    Abstract mark with red circles and hexagons plus white outlined and filled hexagons.
  </desc>
  <defs>
    <linearGradient id="redFill" x1="0" y1="0" x2="1" y2="1">
      <stop offset="0%" stop-color="#ff4a57" />
      <stop offset="100%" stop-color="#c7182d" />
    </linearGradient>
  </defs>
  <polygon points="40,34 64,48 64,76 40,90 16,76 16,48" fill="url(#redFill)" />
  <polygon points="95,70 119,84 119,112 95,126 71,112 71,84" fill="#f3f3f3" />
  <polygon
    points="156,39 180,53 180,81 156,95 132,81 132,53"
    stroke="#ffffff"
    stroke-width="5"
  />
  <circle cx="229" cy="47" r="38" fill="#c7182d" />
  <polygon points="298,47 322,61 322,89 298,103 274,89 274,61" fill="#f3f3f3" />
  <polygon
    points="220,88 244,102 244,130 220,144 196,130 196,102"
    stroke="#ffffff"
    stroke-width="5"
  />
  <circle cx="178" cy="156" r="36" fill="#c7182d" />
  <polygon
    points="112,164 136,178 136,206 112,220 88,206 88,178"
    stroke="#ffffff"
    stroke-width="5"
  />
  <polygon points="170,206 194,220 194,248 170,262 146,248 146,220" fill="#f3f3f3" />
  <circle cx="102" cy="286" r="38" fill="#c7182d" />
</svg>
